<svg width="64" height="62" viewBox="0 0 64 62" fill="none" xmlns="http://www.w3.org/2000/svg">
<rect x="12.7579" y="13.6004" width="41.4109" height="33.6971" fill="#939393" stroke="#1E1C1C" stroke-width="2.02995"/>
<path d="M12.7579 11.9769H23.7196V20.7057C23.7196 23.7327 21.2657 26.1865 18.2388 26.1865C15.2118 26.1865 12.7579 23.7327 12.7579 20.7057V11.9769Z" fill="#73F69D" stroke="black" stroke-width="2.02995"/>
<path d="M23.7188 11.9769H34.2746V20.9087C34.2746 23.8235 31.9116 26.1865 28.9967 26.1865C26.0818 26.1865 23.7188 23.8235 23.7188 20.9087V11.9769Z" fill="#73F69D" stroke="black" stroke-width="2.02995"/>
<path d="M34.2762 11.9769H45.2379V20.7057C45.2379 23.7327 42.7841 26.1865 39.7571 26.1865C36.7301 26.1865 34.2762 23.7327 34.2762 20.7057V11.9769Z" fill="white" stroke="black" stroke-width="2.02995"/>
<path d="M28.595 30.6523V42.832L38.7447 43.644V30.6523H28.595Z" fill="white" stroke="black" stroke-width="2.02995"/>
<circle cx="47.4732" cy="15.8336" r="14.8186" fill="#E2F981" stroke="black" stroke-width="2.02995"/>
<path d="M39.3273 20.7437L39.3135 19.2311L42.9214 15.9146C43.8581 15.0196 44.3645 14.4645 44.3645 13.6666C44.3645 12.7715 43.6915 12.2165 42.7687 12.2234C41.8251 12.2165 41.2076 12.8132 41.2146 13.7776H39.2302C39.2233 11.8141 40.6803 10.5582 42.7965 10.5582C44.9474 10.5582 46.3767 11.7863 46.3767 13.5278C46.3767 14.6726 45.8216 15.6093 43.754 17.4827L42.2276 18.9674V19.023H46.5154V20.7437H39.3273ZM47.6117 18.9674V17.3161L51.8579 10.697H54.4806V17.2884H55.7572V18.9674H54.4806V20.7437H52.4962V18.9674H47.6117ZM49.7209 17.2884H52.524V12.9866H52.4268L49.7209 17.2051V17.2884Z" fill="black"/>
<path d="M21.8854 41.7035C11.5622 35.4428 0.316031 42.7666 2.21043 45.7693C4.10482 48.772 15.7494 59.3004 15.7494 59.3004C16.1535 59.9062 35.3345 60.5122 44.0236 59.3004C45.4382 59.9064 57.8328 46.5805 59.8535 42.3394C61.8742 38.0982 56.955 34.3099 52.9309 38.095C51.7537 39.2023 47.3555 43.6557 44.9253 46.1465C44.9563 44.9053 44.4264 42.1069 41.6148 41.9322C38.3642 41.7302 23.502 41.7035 21.8854 41.7035Z" fill="#FFBDAE"/>
<path d="M29.162 49.9837H42.0962C43.8974 49.5797 44.8942 47.3877 44.9253 46.1465M44.9253 46.1465C44.9563 44.9053 44.4264 42.1069 41.6148 41.9322C38.3642 41.7302 23.502 41.7035 21.8854 41.7035C11.5622 35.4428 0.316031 42.7666 2.21043 45.7693C4.10482 48.772 15.7494 59.3004 15.7494 59.3004C16.1535 59.9062 35.3345 60.5122 44.0236 59.3004C45.4382 59.9064 57.8328 46.5805 59.8535 42.3394C61.8742 38.0982 56.955 34.3099 52.9309 38.095C51.7537 39.2023 47.3555 43.6557 44.9253 46.1465Z" stroke="#1E1C1C" stroke-width="2.02995" stroke-linecap="round"/>
</svg>
