<svg
  width="65"
  height="22"
  viewBox="0 0 65 22"
  fill="none"
  xmlns="http://www.w3.org/2000/svg"
>
  <path
    d="M17.1234 9.5588H16.0942V15.6461H12.2842V2.4642C12.2842 1.85109 12.4739 1.39126 12.8535 1.0847C13.233 0.763545 13.6783 0.602968 14.1892 0.602968C14.6855 0.602968 15.1235 0.763545 15.503 1.0847C15.8972 1.39126 16.0942 1.85109 16.0942 2.4642V6.18668H17.1234V2.4642C17.1234 1.85109 17.3132 1.39126 17.6927 1.0847C18.0722 0.763545 18.5175 0.602968 19.0284 0.602968C19.5247 0.602968 19.97 0.763545 20.3641 1.0847C20.7583 1.39126 20.9553 1.85109 20.9553 2.4642V15.6461H17.1234V9.5588ZM6.10924 13.2813C5.45233 13.2813 4.82462 13.1937 4.2261 13.0185C3.64219 12.8287 3.12396 12.5514 2.67142 12.1864C2.23348 11.8069 1.88313 11.3398 1.62037 10.785C1.35761 10.2303 1.22623 9.5807 1.22623 8.83621V6.756C1.22623 6.30346 1.32111 5.86552 1.51089 5.44218C1.08755 5.3692 0.773691 5.19402 0.56932 4.91666C0.379546 4.6393 0.28466 4.32544 0.28466 3.97509C0.28466 3.58095 0.408742 3.2233 0.656907 2.90214C0.91967 2.58099 1.32111 2.42041 1.86124 2.42041H4.13852C4.13852 1.74891 4.32099 1.25987 4.68594 0.953318C5.05089 0.632164 5.52532 0.471587 6.10924 0.471587C6.67856 0.471587 7.14569 0.632164 7.51064 0.953318C7.87559 1.27447 8.06536 1.7635 8.07996 2.42041H10.3134C10.8682 2.42041 11.2623 2.58099 11.4959 2.90214C11.744 3.2233 11.8681 3.58095 11.8681 3.97509C11.8681 4.32544 11.7732 4.6393 11.5835 4.91666C11.4083 5.19402 11.109 5.3692 10.6857 5.44218C10.8901 5.85093 10.9922 6.28887 10.9922 6.756V8.83621C10.9922 9.5807 10.8609 10.2303 10.5981 10.785C10.3353 11.3398 9.97769 11.8069 9.52516 12.1864C9.08722 12.5514 8.56899 12.8287 7.97047 13.0185C7.38656 13.1937 6.76614 13.2813 6.10924 13.2813ZM5.40854 21.1642C4.79542 21.1642 4.2845 21.1058 3.87575 20.989C3.48161 20.8722 3.16775 20.6897 2.93419 20.4416C2.70062 20.1934 2.53274 19.8649 2.43056 19.4562C2.34297 19.0475 2.29918 18.5511 2.29918 17.9672V16.0841C2.29918 15.3396 2.51814 14.7995 2.95608 14.4637C3.40862 14.128 3.94144 13.9601 4.55456 13.9601C5.16767 13.9601 5.6859 14.128 6.10924 14.4637C6.53258 14.7995 6.74425 15.3396 6.74425 16.0841V17.2446C6.74425 17.4928 6.78074 17.6461 6.85373 17.7045C6.92672 17.7628 7.0873 17.792 7.33546 17.792H19.5101C20.1817 17.792 20.6561 17.9672 20.9334 18.3176C21.2108 18.6533 21.3495 19.0402 21.3495 19.4781C21.3495 19.9306 21.2035 20.3248 20.9115 20.6605C20.6342 20.9963 20.1671 21.1642 19.5101 21.1642H5.40854ZM6.10924 10.1938C6.4012 10.1938 6.66396 10.0916 6.89753 9.88726C7.14569 9.68289 7.26977 9.33983 7.26977 8.8581V6.7341C7.26977 6.25237 7.14569 5.90932 6.89753 5.70495C6.66396 5.50058 6.4012 5.39839 6.10924 5.39839C5.81728 5.39839 5.54722 5.50058 5.29905 5.70495C5.06548 5.90932 4.9487 6.25237 4.9487 6.7341V8.8581C4.9487 9.33983 5.06548 9.68289 5.29905 9.88726C5.54722 10.0916 5.81728 10.1938 6.10924 10.1938ZM39.9181 1.30367C40.2246 1.30367 40.4874 1.36206 40.7064 1.47884C40.9253 1.59563 41.1005 1.74161 41.2319 1.91678C41.3633 2.09196 41.4581 2.28903 41.5165 2.508C41.5749 2.72697 41.6041 2.93864 41.6041 3.14301C41.6041 3.34738 41.5749 3.55905 41.5165 3.77802C41.4581 3.99699 41.356 4.19406 41.21 4.36924C41.0786 4.54441 40.9034 4.69039 40.6845 4.80717C40.4801 4.90936 40.2246 4.96045 39.9181 4.96045H28.8382C28.6047 4.96045 28.4441 5.00425 28.3565 5.09183C28.2689 5.16482 28.2251 5.3181 28.2251 5.55167V8.92379C28.2251 9.15736 28.2689 9.31794 28.3565 9.40552C28.4441 9.49311 28.6047 9.53691 28.8382 9.53691H40.2684C40.575 9.53691 40.8377 9.5953 41.0567 9.71208C41.2757 9.82887 41.4508 9.97484 41.5822 10.15C41.7136 10.3252 41.8085 10.5223 41.8669 10.7412C41.9399 10.9456 41.9764 11.15 41.9764 11.3544C41.9764 11.5587 41.9399 11.7704 41.8669 11.9894C41.8085 12.2083 41.7063 12.4054 41.5603 12.5806C41.429 12.7558 41.2538 12.9017 41.0348 13.0185C40.8304 13.1353 40.575 13.1937 40.2684 13.1937H27.2835C26.6266 13.1937 26.0719 13.1353 25.6194 13.0185C25.1668 12.8871 24.8019 12.6828 24.5245 12.4054C24.2618 12.128 24.0647 11.7704 23.9333 11.3325C23.8165 10.8945 23.7581 10.3544 23.7581 9.71208V4.76338C23.7581 4.13567 23.8165 3.60284 23.9333 3.16491C24.0647 2.72697 24.2618 2.36932 24.5245 2.09196C24.8019 1.8146 25.1668 1.61752 25.6194 1.50074C26.0719 1.36936 26.6266 1.30367 27.2835 1.30367H39.9181ZM41.21 17.0256C41.5457 17.0256 41.8304 17.084 42.064 17.2008C42.3121 17.303 42.5092 17.4417 42.6552 17.6169C42.8158 17.792 42.9252 17.9964 42.9836 18.23C43.0566 18.4489 43.0931 18.6679 43.0931 18.8869C43.0931 19.1205 43.0566 19.3467 42.9836 19.5657C42.9106 19.7847 42.7939 19.9817 42.6333 20.1569C42.4873 20.3321 42.2975 20.4708 42.064 20.5729C41.8304 20.6751 41.5457 20.7262 41.21 20.7262H24.4807C24.145 20.7262 23.8603 20.6751 23.6268 20.5729C23.3932 20.4708 23.1961 20.3321 23.0355 20.1569C22.8896 19.9817 22.7801 19.7847 22.7071 19.5657C22.6341 19.3467 22.5976 19.1205 22.5976 18.8869C22.5976 18.6679 22.6268 18.4489 22.6852 18.23C22.7582 17.9964 22.8677 17.792 23.0137 17.6169C23.1742 17.4417 23.3713 17.303 23.6049 17.2008C23.853 17.084 24.145 17.0256 24.4807 17.0256H41.21ZM60.0632 11.2887H59.0998C58.5012 11.2887 58.056 11.1354 57.764 10.8288C57.4867 10.5077 57.348 10.0916 57.348 9.5807C57.348 9.06977 57.4794 8.65373 57.7421 8.33258C58.0049 7.99682 58.4574 7.82895 59.0998 7.82895H60.0632V6.44944H59.0998C58.5012 6.44944 58.056 6.29616 57.764 5.98961C57.4867 5.66845 57.348 5.25241 57.348 4.74148C57.348 4.23056 57.4794 3.81451 57.7421 3.49336C58.0049 3.15761 58.4574 2.98973 59.0998 2.98973H60.0632V2.72697C60.0632 2.02627 60.2749 1.50074 60.6982 1.15039C61.1362 0.785442 61.6398 0.602968 62.2091 0.602968C62.4865 0.602968 62.7565 0.65406 63.0193 0.756245C63.2821 0.843834 63.5156 0.975215 63.72 1.15039C63.9244 1.32557 64.085 1.54453 64.2017 1.8073C64.3331 2.07006 64.3988 2.37662 64.3988 2.72697V16.0841H60.0632V11.2887ZM46.2682 13.544C45.7572 13.544 45.3558 13.3762 45.0638 13.0404C44.7865 12.6901 44.6478 12.3178 44.6478 11.9237C44.6478 11.5295 44.7792 11.1719 45.0419 10.8507C45.3047 10.5296 45.7134 10.369 46.2682 10.369H46.3339V7.06256C46.3339 6.40565 46.509 5.93851 46.8594 5.66115C47.2243 5.3692 47.7134 5.22322 48.3265 5.22322C48.9396 5.22322 49.4286 5.3692 49.7936 5.66115C50.1585 5.93851 50.341 6.40565 50.341 7.06256V10.369H51.6329V7.06256C51.6329 6.40565 51.8154 5.93851 52.1803 5.66115C52.5453 5.3692 53.0343 5.22322 53.6474 5.22322C54.2605 5.22322 54.7423 5.3692 55.0926 5.66115C55.4576 5.93851 55.64 6.40565 55.64 7.06256V10.369H55.8809C56.4356 10.369 56.8444 10.5296 57.1071 10.8507C57.3699 11.1719 57.5013 11.5295 57.5013 11.9237C57.5013 12.3178 57.3553 12.6901 57.0633 13.0404C56.786 13.3762 56.3918 13.544 55.8809 13.544H46.2682ZM49.3118 21.1642C48.6987 21.1642 48.1878 21.1058 47.7791 20.989C47.3849 20.8722 47.0711 20.6897 46.8375 20.4416C46.6039 20.1934 46.436 19.8649 46.3339 19.4562C46.2463 19.0475 46.2025 18.5511 46.2025 17.9672V16.5658C46.2025 15.8213 46.4214 15.2958 46.8594 14.9892C47.3119 14.6681 47.8447 14.5075 48.4579 14.5075C49.071 14.5075 49.5892 14.6681 50.0125 14.9892C50.4359 15.2958 50.6475 15.8213 50.6475 16.5658V17.2227C50.6475 17.4709 50.684 17.6242 50.757 17.6826C50.83 17.7409 50.9906 17.7701 51.2388 17.7701H63.1288C63.8003 17.7701 64.2747 17.9453 64.5521 18.2957C64.8294 18.6314 64.9681 19.0183 64.9681 19.4562C64.9681 19.9087 64.8221 20.3029 64.5302 20.6386C64.2528 20.989 63.7857 21.1642 63.1288 21.1642H49.3118ZM46.5528 4.56631C46.0419 4.56631 45.6405 4.39843 45.3485 4.06268C45.0711 3.72693 44.9325 3.34738 44.9325 2.92404C44.9325 2.5007 45.0638 2.12115 45.3266 1.7854C45.5894 1.43505 45.9981 1.25987 46.5528 1.25987H55.3554C55.9101 1.25987 56.3188 1.43505 56.5816 1.7854C56.8444 2.12115 56.9758 2.5007 56.9758 2.92404C56.9758 3.34738 56.8298 3.72693 56.5378 4.06268C56.2605 4.39843 55.8663 4.56631 55.3554 4.56631H46.5528Z"
    fill="#1E1C1C"
  />
</svg>