<svg width="104" height="139" viewBox="0 0 104 139" fill="none" xmlns="http://www.w3.org/2000/svg">
<path d="M17.9332 113.218V41.4757C29.5913 38.7854 35.4951 56.0483 36.9897 65.0161C46.8542 61.429 77.7182 82.9515 91.9171 94.1612L61.651 130.032C47.0784 125.548 17.9332 115.908 17.9332 113.218Z" fill="#F7CCBF"/>
<path d="M66.1371 130.032L14.5726 110.976L0 139H61.6532L66.1371 130.032Z" fill="#1E1C1C"/>
<rect x="31.3896" width="62.7742" height="98.6451" rx="4.48387" fill="#1E1C1C"/>
<ellipse cx="94.1635" cy="44.8386" rx="8.96774" ry="6.72581" fill="#F7CCBF"/>
<ellipse cx="94.1635" cy="58.2903" rx="8.96774" ry="6.72581" fill="#F7CCBF"/>
<ellipse cx="95.2843" cy="71.7419" rx="7.84677" ry="6.72581" fill="#F7CCBF"/>
<ellipse cx="95.2843" cy="85.1936" rx="7.84677" ry="6.72581" fill="#F7CCBF"/>
<path d="M68.1836 31.6484L67.3535 56.0137H59.6875L58.8086 31.6484H68.1836ZM58.7598 62.8008C58.7354 60.2129 60.8838 58.1133 63.4961 58.1133C65.9863 58.1133 68.208 60.2129 68.2324 62.8008C68.208 65.4375 65.9863 67.5371 63.4961 67.5371C60.8838 67.5371 58.7354 65.4375 58.7598 62.8008Z" fill="#E2F981"/>
</svg>
